<?xml version="1.0" standalone="no"?>
<!DOCTYPE svg PUBLIC "-//W3C//DTD SVG 20010904//EN"
 "http://www.w3.org/TR/2001/REC-SVG-20010904/DTD/svg10.dtd">
<svg version="1.0" xmlns="http://www.w3.org/2000/svg"
 width="864.000000pt" height="864.000000pt" viewBox="0 0 864.000000 864.000000"
 preserveAspectRatio="xMidYMid meet">
<metadata>
Created by potrace 1.16, written by Peter Selinger 2001-2019
</metadata>
<g transform="translate(0.000000,864.000000) scale(0.100000,-0.100000)"
fill="#000000" stroke="none">
<path d="M4210 7640 c-1170 -92 -2209 -755 -2781 -1775 -225 -404 -354 -802
-421 -1305 -17 -130 -17 -674 0 -800 38 -273 91 -508 167 -730 398 -1161 1394
-2037 2593 -2279 266 -54 390 -66 697 -66 295 0 398 8 635 51 688 126 1302
443 1803 933 597 584 952 1321 1038 2156 16 152 16 525 0 675 -34 339 -119
683 -241 979 -486 1182 -1559 1997 -2825 2146 -160 19 -510 27 -665 15z m460
-2596 c346 -79 612 -349 686 -696 18 -86 20 -258 5 -345 -75 -410 -424 -718
-841 -740 -462 -24 -867 303 -941 762 -16 102 -6 278 21 374 99 351 395 611
752 661 80 11 234 4 318 -16z m-1437 -1240 c65 -230 211 -458 394 -615 517
-443 1274 -417 1754 61 105 104 207 248 263 371 38 84 86 229 86 260 0 19 15
19 901 19 l902 0 -7 -62 c-84 -793 -484 -1535 -1101 -2043 -468 -385 -1002
-609 -1630 -686 -146 -18 -522 -16 -683 4 -1126 140 -2066 860 -2490 1907
-106 262 -157 470 -207 843 l-5 37 898 0 898 0 27 -96z"/>
<path d="M4362 4594 c-151 -40 -268 -151 -314 -298 -31 -96 -22 -230 20 -317
139 -290 511 -350 727 -117 65 70 101 143 116 236 51 307 -248 577 -549 496z"/>
</g>
</svg>
